<svg xmlns="http://www.w3.org/2000/svg" width="1040" height="400" fill="none"  xmlns:v="https://vecta.io/nano"><g clip-path="url(#A)"><path fill="#ffa9a9" d="M0 0h1040v400H0z"/><path d="M299.67 232.916l-.01 45.18h10.56v-20.64l-1.52-17.81-9.03-6.73z" fill="#f17ba5"/><path d="M318.04 201.856s-16.72 10.43-18.24 28.02 10.43 27.58 10.43 27.58-3.69-9.12 30.19-21.5l-22.38-34.1zM187 353.456s5.29-21.72 36.78-42.35 89.32-34.82 86.44-53.65l.1 36.27s-6.18 13.9-43.33 32.8c-37.14 18.9-44.31 33.67-47.13 46.91 0 0-8.69-9.34-5.65-28.45.01 0-15.77-.87-27.21 8.47z" fill="#ffdbdb"/><path d="M652.3 217.926s68.42 36.27 76.89 100.78c-1.3 19.98-27.37 41.48-27.37 41.48s11.29-56.25-49.52-90.14c-8.9-5.64 0-52.12 0-52.12z" fill="#f17ba5"/><path d="M349.48 241.496l4.29 120.87c1.95 13.03 30.95 80.14 64.51 98.06 0 0 64.18 4.24 167.13-37.79 50.5-19.55 72.18-48.62 72.98-52.78 1.3-6.84 2.62-131.62 2.62-131.62l-187.67 87.31-55.71 9.77-68.15-93.82z" fill="#fab6d7"/><path d="M350.51 237.256s-6.84 19.55 14.66 54.73 48.22 57.99 48.22 57.99 99.37-14.01 161.27-36.81 97.74-56.04 83.08-86.66-166.81-61.25-166.81-61.25-29-8.14-44.63-2.28c-15.64 5.87-95.79 74.28-95.79 74.28z" fill="#ffdbdb"/><path d="M482.05 169.336s-24.35-6.68-36.16.57-35.76 25.9-35.76 25.9l-54.16 44.63s-2.85 15.23 7.41 35.59 21.67 38.2 51.88 67.6c.81.73 66.62-10.91 97.98-18.9 7.47-1.9 69.96-14.85 108.98-41.32 3.48-2.39 38.78-25.63 32.04-48.54-1.3-18.9-55.06-36.38-92.09-46.15-9.02-3.37-78.14-19.44-80.12-19.38z" fill="#d3376c"/><path d="M413.42 352.266c-.58.03-.5 7.8-.03 19.34l.93 26.73.97 18.36c.38 7.03.44 15.54 1.1 25.35.57 8.46.97 15.15 1.5 15.13.7-.02.7-7.2.38-11.65-.61-8.51-.37-12.67-.87-21.65-.94-15.35-1.1-25.32-1.18-31.21-.04-3.26-.47-8.3-.71-13.25-.23-4.67-.13-6.7-.48-12.16-.72-10.81-1.09-15.02-1.61-14.99z" fill="#f17ba5"/><path d="M568.25 510.276s-28.89-46.91-3.48-77.1 53.43-31.71 89.7-51.48c36.27-19.76 63.51-34.99 73.46-70.38 0 0 15.37 46.27-27.41 85.15-55.38 43.65-141.61 40.18-132.27 113.81z" fill="#ffdbdb"/><path d="M537.19 114.106s8.49 89.27 14.67 89.71c6.18.43 3.53-3.56 3.53-3.56s-10.59-56.28-10.38-83.05-7.82-3.1-7.82-3.1z" fill="#533d23"/><path d="M523.51 118.456s-35.19 2.17-32.8 4.34 48.22 8.5 49.74 5.55 0-8.75 0-8.75l-16.94-1.14z" fill="#66b03f"/><path d="M495.92 64.886s4.13 3.4 3.48 11.44-.51 24.24.07 28.63 14.05 16.36 26.65 18.84 20.9 2.22 20.9 2.22l21.46-29.83 3.69-19.42s-1.19-12.6-10.37-21.07c-1.57-3.69.38-11.51-1.36-15.42s-4.78-7.6-9.77-8.25c0 0-12.81-4.13-17.59-4.78s-12.28.22-13.31 1.09-5.8 5-8.84 6.08-6.73 3.48-9.56 6.52c-2.82 3.04-4.56 7.17-4.56 7.17s-6.1 2.39-6.2 8.9 5.31 7.88 5.31 7.88z" fill="#d3376c"/><path d="M497.01 58.726s8.69 3.62 13.25 6.16c4.56 2.53 25.63.14 33.67-5.07 7.3-4.73 11.37-18.96 7.99-27.56a12.21 12.21 0 0 0-1.26-.25s-12.81-4.13-17.59-4.78-12.28.22-13.31 1.09-5.8 5-8.84 6.08c-3.04 1.09-6.73 3.48-9.56 6.52-1.96 2.11-3.39 4.73-4.09 6.15-1.04 3.74-1.4 7.78-.26 11.66z" fill="#f25151"/><path fill-rule="evenodd" d="M514.377 35.06c-2.144-.199-3.436-.318-3.467-.684-.05-.5 1.77-.98 6.43-.82 1.686.086 2.596.274 3.701.502l1.479.288c2.1.36 4.26.77 5.58 1.28l2.08.86 1.086.492 1.604.739c2 .93 4.46 2.2 7.18 4.19 1.55 1.23 2.52 2.33 3.35 3.48.85 1.14 1.58 2.32 2.51 3.96.49.86.91 2.1 1.01 3.15.12 1.05-.07 1.89-.42 1.9-.22.016-.398-.454-.69-1.23l-.17-.45c-.39-1.04-1-2.46-1.94-3.89-2.17-3.3-4.7-5.75-7.17-7.25-1.94-1.17-3.1-1.76-6.87-3.15-1.9-.66-3.38-1.16-4.99-1.63-1.6-.48-3.33-.9-5.71-1.24-1.767-.238-3.323-.381-4.583-.498zm37.196 2.325c-.156-1.3-.245-2.046-.023-2.128.24-.09.64.43 1.09 1.73.44 1.32 1.01 3.48 1.01 6.68.02.81-.05 1.49-.13 2.1-.057.575-.176 1.08-.29 1.563l-.02.087c-.197.922-.49 1.772-.873 2.881l-.003.01-.134.389c-1.01 2.76-2.64 5.4-4.09 6.7-1.2 1.26-3.13 2.77-5.85 4.07-2.71 1.33-6.25 2.42-10.6 3.23-2.988.49-5.053.558-7.208.629-1.538.05-3.123.102-5.122.31-.993.112-2.225.153-3.331.191h-.006l-.823.03a15.32 15.32 0 0 0-1.298.052c-.554.039-.909.064-1.062-.083-.09-.08.06-.38.48-.62.42-.26 1.06-.48 1.84-.65 1.397-.3 3.247-.468 5.309-.655l.821-.075 3.49-.279c4.064-.31 7.632-.584 10.6-1.39 1.5-.38 2.64-.75 4-1.31l.198-.088c1.294-.572 2.873-1.27 4.822-2.782a14.06 14.06 0 0 0 1.12-.94h.001l.279-.25 1.18-1.251c.41-.39.73-.82 1.05-1.25.115-.163.24-.318.364-.472.211-.263.422-.526.586-.828l.204-.334.656-1.086.404-.877.336-.733c.15-.356.273-.736.4-1.13l.24-.72c.17-.67.34-1.39.46-2.16.44-3.12.25-5.79.03-7.65l-.107-.911zM500.24 68.137c-1.35-.98-2.19-1.75-1.91-2.26.25-.46.91-.31 2.41.39.445.22.676.428.913.644.162.147.327.297.567.456.215.145.443.278.662.407h.001c.414.243.798.468 1.007.722.58.72 1.57 1.85 3.34 3.4.5.48.77.91 1.02 1.35l.117.184c.228.36.46.728.853 1.146.51.5.74 1.67.12 1.96-.378.186-.74-.218-1.253-.79-.179-.199-.375-.418-.597-.64-.482-.481-.859-.994-1.21-1.47-.364-.494-.698-.949-1.09-1.29-.501-.483-.848-.75-1.671-1.385l-.369-.284c-.513-.389-.886-.75-1.271-1.123-.448-.434-.913-.885-1.639-1.418zm-3.46-18.88c-.29-.02-.58 1.24-.76 3.47-.08 1.11-.14 2.47-.06 4.05l.018.25a14.26 14.26 0 0 0 .092.98 7.68 7.68 0 0 0 .09.6l.01.06c.01.043.016.077.021.112.011.068.022.137.069.277.06.18.14.37.23.48.35.54.74.84 1.14 1.14s.81.56 1.23.81c1.503.872 2.847 1.522 4.083 2.12l.457.22 2.273 1.087 1.497.713 7.47 3.5c2.85 1.33 4.69 2.28 6.2 3.11 1.51.84 2.72 1.54 4.16 2.58 3.72 2.54 7.4 6.66 11.48 11.5 1.51 1.797 2.794 3.501 3.806 4.843 1.353 1.796 2.217 2.942 2.474 2.787.64-.37-1.63-4.56-3.5-6.83l-1.481-1.848a256.243 256.243 0 0 0-2.929-3.622c-1.36-1.64-2.79-3.29-5.05-5.25-3.797-3.297-7.46-5.332-10.383-6.957l-.167-.093-5.96-3.155-1.05-.545c-1.137-.586-2.707-1.23-4.416-1.93h-.001l-3.543-1.49c-1.38-.62-2.34-1.12-3.33-1.67-.5-.27-.99-.56-1.53-.89-.27-.17-.54-.35-.81-.54-.24-.19-.54-.44-.63-.58l-.003-.01-.007-.012a.148.148 0 0 1-.02-.018l-.06-.28c-.05-.18-.08-.37-.11-.56-.065-.345-.104-.7-.142-1.037l-.008-.073a44.27 44.27 0 0 1-.17-2.01l-.071-1.243-.099-1.767c-.11-1.57-.24-2.27-.51-2.28zm7.437 10.84c-.114 1.016-.18 1.593-.397 1.63-.25.04-.55-.55-.72-1.96-.13-1.4-.15-3.65.8-6.73a14.22 14.22 0 0 1 1.63-3.42l.328-.467h.001c.191-.276.384-.553.601-.834l1.18-1.42c1.97-2.2 4.4-4 6.17-4.78 1.6-.67 3.84-1.55 6.92-1.72 1.53-.07 3.28.09 5.11.75.307.1.606.245.91.393l.46.218c.145.1.298.192.453.286.294.179.595.361.857.604.88.65 1.61 1.59 2.19 2.67.65 1.31.78 2.51.84 3.59.07 1.09-.07 2.06-.22 3-.35 1.89-.93 3.65-1.91 5.95-.53 1.2-1.5 2.64-2.53 3.59-1.02.97-2.03 1.4-2.23 1.13-.119-.155.166-.527.644-1.15l.696-.93c.86-1.2 1.93-2.99 2.65-5.16.84-2.5 1.25-4.96.98-7.12-.13-1.09-.4-2.06-.94-2.84-.52-.79-1.18-1.46-1.96-1.9-1.19-.73-2.29-1.05-3.66-1.23-1.37-.15-3.09-.13-5.53.67-2.43.83-4.23 1.85-6.02 3.08-1.75 1.24-3.49 2.83-4.96 5.57a18.36 18.36 0 0 0-1.54 3.94 24.9 24.9 0 0 0-.64 3.25l-.163 1.34zm8.673-12.45c-.57-.05-.9 1.51.03 3.42.45.95.88 1.6 1.31 2.2.46.57.93 1.11 1.68 1.58 1.164.718 1.754.942 2.385 1.182l.555.217c.219.078.445.165.68.256.999.384 2.153.828 3.53.884 1.46-.01 2.59-.03 2.62-.55.04-.7-1.07-1.13-1.79-1.08-.582.043-1.015-.086-1.437-.212l-.233-.068a8.85 8.85 0 0 1-.597-.197 9.198 9.198 0 0 0-1.053-.323c-2.4-.47-3.54-1.69-4.08-2.34-.14-.2-.37-.39-.65-.59l-.057-.051-.057-.052c-.214-.194-.452-.41-.646-.647a3.575 3.575 0 0 1-.426-.808h-.001a5.581 5.581 0 0 0-.373-.772c-.241-.409-.405-.767-.54-1.06-.089-.193-.164-.358-.24-.49-.18-.34-.34-.49-.61-.5zm7.54-3.64c.7-1.29 1.57-1.93 2.01-1.55.387.32.248.74-.097 1.78l-.063.19c-.107.311-.232.493-.354.67-.105.153-.208.303-.296.53-.091.24-.14.496-.186.732-.043.22-.082.422-.149.581.205-.12.48-.22.795-.324.44-.1.86-.11 1.26.03.244.055.465.147.678.236.137.056.269.111.402.154a6.06 6.06 0 0 0 .26.125c.382.178.747.347 1.32.985.527.693.545 1.263.569 2.007l.021.503c.04 1.04-.39 1.67-.95 1.55-.513-.098-.617-.42-.841-1.11l-.009-.03c-.071-.191-.049-.32-.028-.445.017-.103.034-.203-.002-.335a1.168 1.168 0 0 0-.214-.375c-.084-.111-.156-.207-.146-.305 0-.16 0-.42-.17-.65-.14-.25-.49-.44-.95-.44-.209 0-.378-.065-.543-.128-.254-.097-.495-.19-.847-.032-.29.17-.83-.08-.97-.77l-.001-.005c-.317.618-.634 1.558-.529 2.885.025.409-.028.732-.077 1.037-.071.442-.136.845.047 1.413.19.49.01 1.34-.68 1.48-.51.1-.8-.69-1.07-1.75-.238-.842-.125-1.62-.025-2.309a6.93 6.93 0 0 0 .095-.91c.03-.233.047-.433.064-.64.035-.418.073-.87.226-1.69.191-.872.503-1.412.907-2.112.166-.288.348-.602.543-.979z" fill="#f17ba5"/><path d="M492.88 181.546s-8.67-8.98-6.94-20.4c0 0 1.73.09 3.36 2.26 0 0-5.1-26.06 7.93-35.95 0 0 7.17.43 15.42 6.03 8.25 5.59 11.51 3.64 12.81 4.29s11.51 6.3 13.68 16.72c0 0 5.14-4.12 9.85 20.96 0 0 8.76 1.24 0 24.78s-27.87 5.51-27.87 5.51l-28.24-24.2z" fill="#8fda53"/><path d="M505.37 144.716c-.17.23.73 1.2 2.32 2.85l6.32 7.04c2.46 3.04 4.08 5.43 5.52 7.74l2.1 3.49 2.17 3.93 1.85 3.74 1.29 2.8 1.89 4.8 1.07 3.6.55 1.94c.2.66.29 1.36.44 2.05l.91 4.37.74 4.75c.56 2.82.62 5.4.84 7.24.2 1.85.41 2.99.68 2.99.69.01.83-4.96.51-8.01l-1-7.29-.65-3.41c-.27-1.2-.45-2.55-.97-4.01l-2.34-6.88-2.23-5.52-1.95-4.31-1.62-3.21c-.47-1.03-1.32-2.2-2.19-3.52-.85-1.34-1.92-2.7-2.93-4.08l-2.39-3.21-1.21-1.54-1.65-1.82c-2.59-2.7-4.55-4.42-5.9-5.41-1.3-1.02-2.01-1.32-2.17-1.11z" fill="#66b03f"/><path d="M537.19 193.606l-3.04 4.67v14.02s.22 6.3-3.91 7.82-15.64 4.25-15.64 4.25l-24.01-1.03s-16.17-5.3-16.61-5.78-4.68-9.49-4.68-9.49l12.28-7.79 43.66-5.57 11.95-1.1z" fill="#0572ec"/><path d="M471.05 200.256s-2.28-5.46-1.63-5.51 4.34 1.57 4.34 1.57v-6.65l4.71-2.38s2.46-5.63 3.11-5.74 5.83 2.28 5.83 2.28l2.21-3.91 4.08 2.34 2.01-3.14 3.91 2.44 1.95-3.58 3.79 4.07 5.58-4.07 1.27 4.07 8.2-4.07v5.25l6.56-3.68v6.97l5.66-1.38-2.61 6.19 7.17 2.28-5.81 4.67-2.66 5.58-4.56-1.93-4.4 6.14-2.58-4.2-3.87 5.07-4.78-1.95-5.27 4.45-4.88-3.37-4.18 3.37-4.78-6.52-6.52 3.15-11.85-7.81z" fill="#66cbff"/><path d="M522.42 189.676c-4.63-4.86-30.67-8.54-37.79 3.93-3.58 6.26-2.24 10.72-.01 13.61l4.79-2.32 4.78 6.52 4.18-3.37 4.88 3.37 5.27-4.45 4.78 1.95 3.87-5.07 2.58 4.2 4.4-6.14.78.33c1.77-4.61.56-9.35-2.51-12.56z" fill="#533d23"/><path d="M606.91 168.026s-2.12 21.01-49.85 38.93c0 0-1.44-3.72 4.89-16.45 6.32-12.73 24.92-30.24 24.92-30.24h16.94l3.1 7.76z" fill="#66b03f"/><path d="M561.77 201.896c.45.37 2.18-1.34 4.7-3.92 2.54-2.57 3.99-3.53 6.19-5.59l4.35-3.69c1.73-1.35 4.08-2.55 6.67-4.09l2.93-1.53c.75-.38 1.2-.71 1.13-.97-.09-.34-.71-.4-1.48-.29-.38.05-.81.15-1.22.26-.39.15-.77.33-1.09.5l-3.06 1.56c-.96.42-1.85.98-3.05 1.78l-7.92 6.06c-.85.62-1.88 1.87-2.98 3-1.03 1.06-1.62 1.4-2.73 2.74-2.16 2.67-2.85 3.85-2.44 4.18z" fill="#367a14"/><path d="M553.32 206.966s4.24-21.5 26.55-41.54c2.77-1.47 1.63 1.1 1.63 1.1s-17.92 16.33-24.43 40.44c-1.64 2.44-3.75 0-3.75 0z" fill="#533d23"/><path d="M567.52 78.116s-5.41-2.93-9.81.65-4.1 5.21-7.35 7.66c-3.24 2.44-6.03 9.94-7.32 19.71s2.94 26.23 10.27 28.51c0 0-.65 6.19 4.56 13.52s6.26 4.44 9.65 11.26 11.37 8.29 11.37 8.29 2.42 8.3 14.33 6.84c11.92-1.45 17.1-2.93 21.67-2.28 4.56.65 12.71-3.26 19.87-12.87 7.17-9.61 15.64-19.22 22.32-23.13s14.17-9.77 16.13-22.15c1.95-12.38-12.22-20.2-21.5-19.38 0 0-1.14-1.63-6.35-1.79 0 0 1.79-6.19-1.3-11.73-3.1-5.54-16.78-10.75-20.69-13.52s-37.08-7.84-55.85 10.41z" fill="#f25151"/><path d="M561.79 89.836c-1.14 8.14 1.3 21.34 1.14 23.29s1.3 6 2.77 6.67c1.47.66 2.93-1.13 5.54.66s5.54 7 5.54 7-.33-23.13 6.52-24.68c0 0 .33 7.09 1.79 11.16s7.33 7.33 7.33 7.33-2.61-14.82 1.47-21.67c4.07-6.84 13.19-11.08 19.71-11.57s15.96 3.42 19.87 6.68 3.42 8.06 3.42 8.06 6.03-.41 7.82 1.87c0 0 5.54-5.38.65-11.73 0 0 1.79-6.19-1.3-11.73-3.1-5.54-16.78-10.75-20.69-13.52s-37.07-7.82-55.84 10.43c-.01.03-4.6 3.61-5.74 11.75z" fill="#d3376c"/><path fill-rule="evenodd" d="M591.488 120.264c.639.588.992.912.912 1.042-.12.21-1.16-.09-3.08-1.49a18.72 18.72 0 0 1-3.28-3.26 16.99 16.99 0 0 1-3.06-6.21c-.71-2.63-.84-4.48-.94-6.22a14.886 14.886 0 0 1-.008-.215 6.788 6.788 0 0 0-.472.495c-1.03 1.18-2.09 3.6-2.45 7.4a103.762 103.762 0 0 1-.565 4.712l-.485 4.028-.396 6.521-.163 3.151-.081 3.528.034.34c.02.226.04.456.086.62.04.27.19.58.37.91.36.66.85 1.36 1.41 2.06 2.26 2.79 5.79 5.86 10.81 7.9 2.93 1.17 5.2 1.69 7.46 2.15a35.3 35.3 0 0 0 7.59.65 137.64 137.64 0 0 1 5.37.01c1.7.04 3 .12 3.05.47.07.53-4.8 1.33-11.06 1.14-3.63-.12-7.01-.65-10.04-1.6-3.04-.96-5.65-2.31-7.85-3.74a32.66 32.66 0 0 1-4.51-3.5l-.068-.065c-.712-.682-1.488-1.426-2.302-2.415a19.93 19.93 0 0 1-1.3-1.75l-.085-.14v-.001c-.186-.307-.382-.63-.555-1.029a3.936 3.936 0 0 1-.172-.537l-.068-.243c-.041-.17-.063-.332-.086-.496v-.001l-.034-.233c-.198-1.793-.138-3.293-.08-4.734l.01-.256.169-2.547c-.332-.37-.72-.843-1.157-1.375a92.733 92.733 0 0 0-1.162-1.397 54.31 54.31 0 0 1-.62-.743h-.001c-.767-.928-1.418-1.716-2.189-2.137-.95-.55-2.09-.64-3.12-.45-.81.12-1.46.319-2.24.6-.79.289-1.72.68-3.1 1.36-1.28.679-2.21 1.3-3.15 2.079-.9.811-1.81 1.781-2.7 3.341-.77 1.405-1.3 2.671-1.703 3.634-.504 1.201-.81 1.931-1.137 1.875-.26-.039-.39-.429-.34-1.21.06-.82.29-2.09.93-3.83.54-1.358.997-1.966 1.605-2.774l.585-.796c1.02-1.37 2.24-2.729 3.29-3.259.271-.179.598-.319.957-.473.224-.097.461-.198.703-.317a57.49 57.49 0 0 1 2.15-.81c.443-.164.921-.328 1.437-.488a4.787 4.787 0 0 1-.627-.753c-.65-1.01-1.2-2.52-1.67-4.21-.794-2.916-.999-5.596-1.178-7.945l-.202-2.325-.139-1.677a102.603 102.603 0 0 1-.361-5.793 37.19 37.19 0 0 1 .19-5.19c.17-1.66.47-3.44 1.13-5.76.69-2.32 1.71-4.13 2.64-5.22.92-1.11 1.72-1.5 1.9-1.28.17.21-.02.58-.48 1.38l-.111.204c-.446.813-1.11 2.026-1.689 3.856l-.405 1.293c-.365 1.144-.604 1.893-.815 3.247-.16 1.125-.166 2.293-.17 3.325-.004.712-.007 1.36-.06 1.885-.2 2.32-.47 6.37.41 12.47.176 1.257.278 2.279.372 3.222l.118 1.148c.15 1.28.32 2.54.86 4.13l.85 2.71a16.98 16.98 0 0 0 .36.98l.012.033.428-.112c1.06-.26 2.3-.49 3.76-.29.85.14 1.56.48 2.12.87.55.41.96.85 1.32 1.3l.645.873c.439.605.886 1.219 1.515 1.957a6.71 6.71 0 0 1 .449.589l1.141-9.79.063-.507c.235-1.88.455-3.645.877-5.233.45-1.71 1.11-3.18 1.9-4.24.727-.985 1.574-1.58 2.242-1.848a53.993 53.993 0 0 1 .108-4.391 28.98 28.98 0 0 1 .19-1.85c.09-.63.18-1.23.45-1.96.272-.598.533-.956.796-1.315l.254-.356c.325-.458.668-.89 1.003-1.31l.047-.06c1.4-1.76 2.81-3.23 4-4.29 2.16-1.9 5.16-4.44 9.73-6.68 2.26-1.11 5.04-2.03 8.14-2.42 3.1-.42 6.52-.52 10.25-.35 4.36.25 7.51.84 10.56 1.56 1.53.38 3.03.76 4.64 1.3.4.12.81.27 1.23.43l.236.09c.344.129.694.26 1.044.43.87.34 1.83.97 2.63 1.63 3.52 2.83 7.12 8.85 6.51 9.22-.197.129-.947-.771-2.202-2.276l-.704-.843c-.837-.986-1.832-2.158-3.034-3.35-.6-.61-1.26-1.21-1.97-1.77l-.54-.41-.56-.32a6.417 6.417 0 0 0-.776-.368 11.786 11.786 0 0 1-.484-.213c-4.26-1.55-8.61-2.31-12.56-2.88-3.97-.55-7.67-.73-10.97-.51-2.6.18-4.65.43-6.99 1.17-2.33.75-5.08 1.98-8.7 4.71-3.57 2.77-6.12 5.33-8.54 8.22-.3.37-.59.73-.87 1.11l-.079.111a2.954 2.954 0 0 0-.261.4c-.05.1-.12.3-.18.51-.23.85-.36 1.89-.45 2.94a38.3 38.3 0 0 0 .12 7.199c.3 2.68.84 5.12 1.72 7.06.88 1.95 2.05 3.48 3.09 4.66 1.056 1.171 1.973 2.014 2.608 2.598zm-11.468 47.582c.033.051.116.101.189.145l.001.001h.001l.023.015.016.009c.11.06.31.13.55.2.51.15 1.25.32 2.22.5 1.93.36 4.71.74 8.08.88s5.87.1 8.26-.12l.936-.116.834-.104 1.101-.216.689-.134 1.936-.474 1.774-.436.836-.213c2.252-.572 3.862-.98 5.264-1.597 1.59-.69 2.67-1.77 3.72-3.01 1.161-1.358 2.77-2.689 4.505-4.126l1.267-1.049c1.624-1.339 3.369-2.778 5.058-4.585.43-.48.84-.94 1.2-1.51a4.87 4.87 0 0 0 .73-1.78c.25-1.18.12-2.21-.04-3.03a8.577 8.577 0 0 0-.409-1.361 35.22 35.22 0 0 1 1.109.051c.374.02.844.03 1.306.04h.024c.48.02.97.01 1.49-.05 1.766-.128 2.979-.379 3.98-.587l.5-.103.533-.131 2.557-.659 1.161-.338c2.57-.742 5.583-1.612 8.709-3.292 1.56-.83 2.9-1.67 3.81-2.38.92-.69 1.36-1.3 1.2-1.48-.24-.28-.92-.03-1.8.33-.86.38-1.9.89-2.67 1.35-2.055 1.194-3.516 1.683-5.334 2.291l-.001.001c-.817.273-1.707.571-2.755.968-2.9 1.11-5.4 1.66-7.44 1.92-2.05.26-3.61.14-4.73.02-1.39-.17-3.54.05-5.59.35-.548.086-1.011.142-1.443.196-1.093.134-1.991.244-3.567.724-4.29 1.38-5.78 2.4-5.58 2.85.154.347 1.42.026 3.504-.502l4.206-.998a29.91 29.91 0 0 1 5.56-.59l.297.001.032.634.041.785c.07 1.28-.11 2.76-.62 3.65-.53.89-1.33 1.66-2.02 2.32a42.5 42.5 0 0 1-2.15 1.82l-.943.752c-1.169.927-2.432 1.929-3.947 3.318-.82.77-1.6 1.51-2.31 2.28a32.55 32.55 0 0 0-.802.898c-.387.445-.74.851-1.118 1.192-1.21 1.15-2.73 1.55-4.14 1.91-1.906.442-3.561.762-4.947 1.031h-.001l-.004.001-1.858.368-.744.158-.766.162c-.54.14-1.14.25-1.77.36-1.26.24-2.66.39-4.06.47-1.595.06-2.646.005-3.911-.062h-.001a81.129 81.129 0 0 0-3.008-.118l-3.924-.167-2.716-.103c-.7-.01-1.21.02-1.56.1-.09.02-.16.04-.22.06-.07.02-.17.07-.21.1-.14.09-.14.16-.1.21zm33.54-20.99c.156.006.285-.339.512-.949.211-.565.507-1.358.988-2.311.95-1.99 2.87-4.57 5.98-6.75a24 24 0 0 1 4.44-2.41l1.215-.469.825-.321 2-.73c2.6-1 5.01-2.05 7.94-3.7 2.92-1.67 4.74-2.95 6.23-4.07 1.48-1.14 2.65-2.1 4.07-3.42 1.76-1.7 3.64-3.71 5.25-6.26.77-1.29 1.49-2.7 2-4.27a17.61 17.61 0 0 0 .82-5.04c-.01-3.06-.78-5.69-1.55-7.43-.37-.89-.76-1.55-1.07-1.99-.3-.44-.52-.65-.64-.59-.16.08-.16.42-.07.93.055.28.143.605.241.967v.001l.249.962a34.43 34.43 0 0 1 1.01 4.79c.38 2.75-.01 4.86-.71 6.83-.73 1.97-1.77 3.86-3.52 6.26-3.07 4.07-6.61 6.61-9.5 8.46a53.35 53.35 0 0 1-7.19 3.73c-.583.243-1.245.552-1.973.891l-1.697.779c-.795.364-1.639.718-2.516 1.086l-2.054.874c-.483.191-.909.406-1.307.607h-.001l-.662.323c-.6.27-1.13.57-1.67.9l-.137.082c-.498.293-1.012.597-1.543 1.018l-.211.159c-.231.173-.475.355-.719.561l-.35.331-.64.599c-1.36 1.38-2.32 2.74-2.97 3.95-.63 1.23-.99 2.28-1.19 3.12-.34 1.7-.13 2.5.12 2.5zm29.718-41.299c-.945-.521-1.591-.877-1.508-1.411.08-.5.69-.66 2.1-.29a2.36 2.36 0 0 1 .508.209c0-.262.078-.59.166-.963v-.001l.076-.325c.097-.519.292-.962.47-1.369.173-.393.331-.752.37-1.111.1-.55.1-.88.04-1.82a6.752 6.752 0 0 1-.029-.823c.005-.514.009-1-.271-1.687l-.232-.512h-.001v-.002h-.001c-.328-.708-.544-1.174-.266-1.566.29-.4.95-.27 1.89.79.302.375.367.646.438.943.038.156.077.319.152.507.046.137.098.275.148.412.168.452.33.888.292 1.218l-.126.7a56.731 56.731 0 0 0-.494 3.05c-.097.545-.3.883-.5 1.215-.192.32-.382.635-.47 1.125-.081.352-.404.739-.793.846l.023.014.287.179c.474.292.96.591 1.143.931.42.73 1 1.94 1.64 3.87.157.639.103 1.087.049 1.536-.046.382-.092.764-.009 1.264.06.57-.37 1.43-1.06 1.29-.433-.08-.493-.604-.572-1.293l-.068-.537a5.929 5.929 0 0 1-.078-.966c-.004-.177-.007-.348-.022-.514.01-.45-.05-.86-.18-1.21-.047-.226-.142-.391-.244-.567l-.086-.153c-.083-.171-.212-.343-.376-.56a17.39 17.39 0 0 1-.244-.33 8.978 8.978 0 0 1-.499-.608c-.349-.454-.678-.881-1.411-1.342l-.131-.072-.121-.067zm-8.628-6.92c.14 0 .27-.34.26-.98a6.06 6.06 0 0 0-.69-2.7 4.62 4.62 0 0 0-1.4-1.61c-.64-.42-1.29-.75-2.01-1.1-1.43-.68-3.06-1.37-4.86-2.04-3.62-1.33-6.32-2.24-9.02-2.82-1.36-.28-2.68-.54-4.34-.32-1.44.26-2.81.65-4.38 1.18-3.1 1.09-5.06 2.08-6.64 3-1.58.94-2.8 1.78-4.27 3.01-1.81 1.6-3.69 3.59-4.99 6.329-1.21 2.74-1.71 5.95-1.57 9.28.24 5.76 1.61 10.08 2.1 9.95.34-.09.29-1.28.17-2.82l-.47-4.84c-.179-1.755-.186-3.233-.067-4.597a.337.337 0 0 0 .197.177c.67.23 1.35-.64 1.52-1.28.246-.781.603-1.197 1.013-1.675.241-.281.501-.584.767-.995 1.23-1.97 2.67-2.69 3.44-3.07.243-.102.501-.325.786-.57.242-.21.504-.436.794-.62.277-.17.501-.258.728-.347.265-.104.536-.21.902-.453l.171-.106.108-.068c1.187-.74 1.67-1.041 1.531-1.516-.14-.56-1.48-.47-3.19.35-.403.202-.761.37-1.09.526-1.044.493-1.792.846-2.72 1.644a16.993 16.993 0 0 0-1.66 1.701l-.44.499c-.189.247-.412.494-.647.756-.632.705-1.355 1.509-1.763 2.654a8.213 8.213 0 0 0-.203.545l.073-.395c.42-2.02 1.02-4 2.56-6.34 1.32-2.02 3.03-3.53 4.69-4.71a27.3 27.3 0 0 1 4.85-2.71 34.9 34.9 0 0 1 7.45-2.25c1.71-.45 5 .06 8.11.94 1.87.551 3.035 1 4.513 1.568l2.967 1.112c1.64.61 3.09 1.18 4.07 1.7.87.49 1.33 1.34 1.64 1.98.2.45.348.828.466 1.13.237.607.357.914.544.9zm-26.56-2.49c.057.144.545.075 1.429-.05a40.015 40.015 0 0 1 3.481-.37c1.53-.08 3.4-.06 5.48.32 1.04.16 2.13.47 3.25.83 1.13.39 2.33.83 3.54 1.35s2.31 1.06 3.31 1.64c.458.258.9.525 1.339.79l.889.532a1.854 1.854 0 0 0-.258.047c-.56.14-.78.36-.77.64a.67.67 0 0 1-.111.334c-.062.112-.117.213-.069.336.032.091.062.159.087.216a.66.66 0 0 1 .073.234c.024.073-.014.146-.054.224-.06.115-.125.241-.006.396l.054.08c.138.202.246.362.716.45.69.14 1.03-.02.93-.18-.107-.155-.034-.25.044-.35.067-.088.138-.18.096-.32-.228-.464.003-.749.164-.947l.026-.033c.055-.067-.003-.15-.065-.239a.572.572 0 0 1-.095-.171c-.016-.057.004-.106.024-.154a.291.291 0 0 0 .03-.106c.462.238.926.465 1.406.64.281.111.574.209.84.298l.58.202c.8.32 1.55.79 2.24 1.3 1.37 1.06 2.49 2.36 3.29 3.9.77 1.54 1.18 3.33.79 5.29-.14.9-.62 1.66-1.13 2.37-.51.7-1.09 1.3-1.64 1.84-1.12 1.07-2.18 1.87-3.17 2.57-2 1.38-3.74 2.35-6.05 3.41-5.84 2.66-13.63 4.57-22.57 3.64-3.86-.34-7.27-1.13-9.37-2.29-1.06-.57-1.75-1.22-2.12-1.73a5.92 5.92 0 0 1-.352-.535c-.118-.197-.186-.31-.268-.305-.18-.02-.33.49-.06 1.23.25.74.95 1.61 1.9 2.3 1.91 1.43 4.67 2.2 6.75 2.54 2.01.34 3.75.49 5.38.62a37.37 37.37 0 0 0 4.69.17 37.52 37.52 0 0 0 10.3-1.64c3.48-1.08 6.54-2.41 9.2-3.84s4.93-2.98 6.79-4.63c.93-.83 1.75-1.7 2.42-2.64a7.6 7.6 0 0 0 .86-1.49c.087-.166.147-.351.207-.535l.093-.275c.051-.195.086-.38.12-.562l.009-.048.014-.074.007-.034.01-.052c.4-2.04.07-3.89-.46-5.29-.59-1.57-1.79-3.39-3.57-4.85-.89-.73-1.9-1.4-3.05-1.91-.407-.188-.887-.335-1.292-.458v-.001a12.377 12.377 0 0 1-.418-.131c-.5-.17-1-.36-1.48-.61a47.418 47.418 0 0 1-2.342-1.336c-.804-.48-1.563-.934-2.358-1.324a33.64 33.64 0 0 0-5.65-2.25c-5.1-1.47-8.84-.88-11.05-.38-2.25.57-3.12 1.18-3.03 1.4zm-8.44 6.609c.27-1.05.65-1.59.93-1.51.26.08.34.41.36 1.12l.013.485c.013.692.032 1.63.247 2.815.085.352.148.653.205.923.179.842.292 1.379.785 2.197.56.921 1.46 1.508 2.156 1.962l.474.318c.63.43 1.69 1.01 3.13 1.48 1.43.46 3.3.87 5.51.64 1.28-.12 2.21-.21 3.11-.42.9-.19 1.79-.5 2.74-1.25.5-.37 1.15-.85 1.74-1.21.58-.37 1.11-.62 1.39-.4.409.27-.773 2.179-3.189 3.628.223-.064.45-.124.679-.178l.769-.189c.531-.128.974-.235 1.431-.381.63-.19 1.21-.4 1.76-.65 1.11-.5 2.17-1.13 3.29-2.3.467-.491 1.063-1.085 1.606-1.627l.384-.383.131-.125c.588-.563.992-.95 1.309-.885.27.07.14.89-.45 1.86-.59.98-1.59 2.23-2.95 3.39-1.57 1.36-3.39 2.22-5.13 2.69-.3.075-.599.136-.892.196l-.408.084-.34.061-.78.149a11.09 11.09 0 0 0-1.97.63c-.41.173-.782.362-1.162.555-.502.255-1.017.516-1.648.755-1.1.41-2.45.73-4.43.93a27.61 27.61 0 0 1-5.21.04c-1.68-.22-3.5-.56-5.7-1.7-2.2-1.17-3.55-2.88-4.16-4.17-.64-1.3-.62-2.19-.35-2.25.252-.077.494.239 1.017.921l.053.069.107.144.002.003.001.001c.541.727 1.358 1.824 2.89 2.842.239.179.47.312.684.435a6.5 6.5 0 0 1 .406.245l.498.263.412.217.248.111.001.001c.505.228 1.022.461 1.761.598 1.334.294 2.695.264 3.843.24l1.157-.01.368.011c1.11.034 2.56.078 4.292-.201.98-.15 1.95-.45 3.06-1.03l.346-.169a11.48 11.48 0 0 1-1.216.189c-1.27.149-2.445.074-3.502.006l-.248-.016c-.89-.07-1.57-.18-2.42-.32l-.047-.009c-.831-.168-1.83-.37-3.253-.881-.619-.18-1.209-.494-1.75-.782l-.26-.138-.255-.185v-.001c-.481-.348-.944-.684-1.335-1.144-.95-1.01-1.75-2.32-2.22-4.18a9.427 9.427 0 0 1-.02-4.51zm6.09 7.28c.399.068.752-.756 1.31-2.057.267-.623.581-1.356.97-2.153 1.3-2.41 2.4-3.19 4.15-4.24.47-.22.87-.39 1.23-.49l.97-.22.28-.027c.508-.051.957-.097 1.5-.063.81 0 1.7.19 2.52.57s1.57.92 2.18 1.74c.54.7.79 1.52.94 2.13l.017.068c.14.573.233.954.503.992.34.05.66-.4.78-1.06s-.01-1.51-.3-2.09c-.57-1.09-1.13-1.82-1.81-2.47-.68-.64-1.54-1.15-2.77-1.39-.367-.083-.72-.108-1.059-.133-.15-.01-.297-.021-.441-.037-.24 0-.473-.002-.7-.005l-.64-.005-1.2.06-.769.111-.351.05c-1.4.28-2.46.739-3.17 1.179-.85.44-1.69 1.63-2.41 2.74a24.63 24.63 0 0 1-.428.652c-.435.65-.761 1.135-1.122 2.188-.8 2.73-.67 3.88-.18 3.96zm14.29-10.23c-.11.05-.22-.03-.44-.24-.274-.252-.461-.45-.606-.602-.124-.13-.216-.228-.304-.298l-.02-.01.02-.07a1.63 1.63 0 0 1 .06-.13c.05-.08.1-.13.15-.17l.099-.076c.074-.055.149-.112.211-.174a2.59 2.59 0 0 0 .18-.22c.119-.158.223-.296.36-.29a3.33 3.33 0 0 1 .162.014c.325.03.726.069 1.178-.264.149-.079.278-.039.402 0 .142.043.278.085.428-.06.15-.15.45.13.51.83.037.488-.138.645-.361.846l-.059.054c-.16.16-.337.138-.495.118-.109-.014-.208-.026-.285.022-.113.036-.181.096-.281.184a3.78 3.78 0 0 1-.149.126c-.09.08-.18.07-.26.05a1.474 1.474 0 0 0-.076-.016c-.053-.01-.097-.02-.104-.034 0 .01.02-.08-.03.02a1.036 1.036 0 0 1-.083.147l-.027.043c-.07.11-.13.17-.18.2z" fill="#c9333c"/><path d="M629.88 211.196s-2.77-13.52 0-24.6 19.55-32.25 35.19-39.26c7-2.93 24.92-.81 25.74 0 .81.81.98 2.28.98 2.28s5.05-.33 8.31.81 4.56 2.93 4.24 3.58c-.33.65-.98 1.3-.98 1.3s5.54 1.14 7 4.72c0 0 7.17 2.93 8.31 10.75s0 9.77 0 9.77-.49 21.67-24.6 37.79c-24.11 16.13-50.17 8.63-50.17 8.63l-14.02-15.77z" fill="#f25151"/><path fill-rule="evenodd" d="M691.47 150.616c-.392-.235-.913.12-1.728.675l-.742.495a5.7 5.7 0 0 1-1.67.71l-.476.129a13.086 13.086 0 0 0-.398.103 4.604 4.604 0 0 1-.616.148l-.42.091-.6.129-2.372.403-.878.137-1 .16-.479.081-.251.049a7.731 7.731 0 0 1-.651.111l-.059.009 2.92.81.76.221.55.159.653.23.387.14a2.8 2.8 0 0 1 .535.266l.275.154a2.6 2.6 0 0 1 .37.23l.24.19.139.115.001.001h.001v.001l.389.333c.33.3.51.64.66.94.13.29.26.53.53.57.34.05.62-.2.77-.62.12-.43.02-1-.22-1.33-.45-.64-.8-1.03-1.17-1.43-.03-.05-.041-.086-.05-.115-.017-.056-.023-.078-.15-.105l-.282-.057a4.192 4.192 0 0 1-.298-.073c.04-.01.11-.02.18-.02.13-.01.27-.01.39-.01.24.01.35.07.39.13.417-.057.94-.367 1.477-.686l.363-.214c.206-.119.385-.2.556-.277.344-.155.653-.295 1.074-.703 1.19-1.25 1.34-2.02.9-2.28zm9.12 5.86c.65-.49 1.2-.71 1.63-.32.39.35.3.75-.21 1.5-.16.22-.313.295-.469.372-.108.053-.217.106-.331.208-.105.091-.202.199-.297.304-.176.194-.341.377-.523.416-.52.11-1.3.3-2.43.96-.34.18-.64.17-.92.16h-.088c-.248-.002-.49-.004-.812.13-.38.17-1.01-.19-.93-.88.038-.417.313-.535.675-.69l.365-.17c.302-.153.61-.189.895-.222.273-.032.525-.061.735-.188.28-.123.445-.247.795-.509l.003-.003.252-.188c.253-.199.496-.297.755-.401.274-.11.566-.227.905-.479zm-23.49 22.61c.16.24.79.08 1.6-.6.8-.67 1.77-1.94 2.2-3.75.19-.9.26-1.71.22-2.44a13.612 13.612 0 0 0-.113-1.265v-.001l-.067-.634c-.08-1.02-.02-1.98.25-3.18a8.92 8.92 0 0 1 1.01-2.55c.35-.6.69-1.06 1.2-1.53.3-.29.7-.59 1.01-.68a.25.25 0 0 0 .063-.007.447.447 0 0 1 .127-.013h.38l.87.02c1.22.04 2.59.05 4.07-.27 1.27-.29 2.42-.75 3.11-1.38s.81-1.25.59-1.36c-.258-.145-.594-.01-.987.147a7.496 7.496 0 0 1-.293.113l-.926.313-.834.277c-1.07.37-1.97.38-2.86.37l-.868-.033c-.646-.034-1.355-.072-2.322.003a2.84 2.84 0 0 0-.58.13 1.778 1.778 0 0 0-.378.166l-.122.064c-.29.17-.55.34-.76.53-.429.343-.767.723-1.083 1.078l-.047.052c-.64.76-1.11 1.52-1.49 2.22-.74 1.42-1.07 2.65-1.24 3.58-.1.52-.07 1.19.05 1.92l.24 1.08.067.29c.053.212.106.428.113.64.059 1.005-.081 1.511-.337 2.432l-.153.558c-.345 1.095-.832 1.849-1.18 2.389a18.4 18.4 0 0 0-.18.281c-.37.53-.5.82-.35 1.04zm-44.32 29.82c.156.045.426-.439.915-1.316l1.645-2.784a37.63 37.63 0 0 1 8.3-9.22c4.03-3.22 7.54-4.85 10.88-6.17 3.31-1.38 6.6-2.08 10.91-2.63 4.104-.465 6.926-.534 9.281-.591l.369-.009c2.43-.04 4.4-.02 6.93.05 2.091.039 4.324.147 6.7.262l3.9.178c3.87.14 8.09.25 12.62-.26 1.95-.24 3.8-.58 5.45-1.04a18.83 18.83 0 0 0 4.2-1.75c2.25-1.39 3.04-2.91 2.85-3.02-.158-.12-.547.134-1.149.527-.544.356-1.262.825-2.141 1.233-1.81.92-4.31 1.51-6.24 1.91-3.73.73-6.63.74-9.54.71a221.402 221.402 0 0 1-4.97-.142 431.108 431.108 0 0 0-5.02-.158l-3.324-.074-14.196-.116c-4.73.1-8.39.5-11.09 1.01-1.49.25-3.39.81-5.37 1.63l-1.878.839h-.001l-1.141.511-3.05 1.61-2.48 1.48c-.486.303-.934.609-1.379.914l-.701.476c-.607.39-1.175.855-1.804 1.369l-.296.241c-.673.516-1.33 1.169-2.093 1.926l-.337.334c-3.48 3.69-5.19 6.83-6.06 8.89-.87 2.09-.93 3.12-.69 3.18zm55.64-53.51c.04-.6.37-.97.94-.88.52.08.67.27.87.71.063.127.031.204-.003.283a.33.33 0 0 0-.037.197.644.644 0 0 0 .12.236c.062.09.115.167.07.234-.06.11-.14.27-.14.44-.01.18.12.34.28.31.051-.012.061.019.075.059.008.023.017.049.035.071.03.09.15.1.24 0 .1-.14.38.11.61.78.08.26.04.43-.09.58s-.33.29-.64.37c-.33.13-.76 0-1.04-.19-.207-.135-.347-.292-.475-.435a2.833 2.833 0 0 0-.205-.215c-.05-.067-.099-.128-.146-.187-.176-.221-.335-.42-.524-.863-.144-.373-.086-.648-.021-.959.034-.164.071-.337.081-.541zm4.01-3.36c0 .58.51.84 1.25.98.426.086.694.242.936.383.184.107.352.206.564.257.48.14.58.19.69.31.087.098.059.178.008.321-.042.12-.1.284-.118.539-.005.123-.022.241-.038.355-.05.351-.094.659.238.915.54.45 1.13.14 1.23-.24.053-.354.177-.56.316-.79l.054-.09c.019-.058.042-.117.065-.178.101-.258.213-.544.075-.982-.32-.85-.86-1.3-1.21-1.58l-.85-.7c-.159-.125-.413-.133-.68-.141-.137-.004-.278-.008-.41-.029a1.233 1.233 0 0 1-.354-.103c-.158-.066-.311-.129-.576-.087-.86.14-1.19.34-1.19.86zm7.85 9.82c-1.07-.17-1.73-.62-1.57-1.18.13-.51.52-.58 1.44-.67.265-.033.428.022.59.076.125.042.25.084.42.084.185.005.37-.028.541-.058.218-.038.413-.072.559-.022a2.95 2.95 0 0 0 2.51-.12c.216-.118.418-.149.601-.178.08-.012.156-.024.229-.042.26-.04.51-.12.71-.4.22-.26.78-.4 1.31.09.37.35 0 .95-.67 1.55-.585.52-1.251.638-1.816.738-.208.037-.402.071-.574.122-.174.036-.322.075-.476.114a9.668 9.668 0 0 1-1.284.256c-.611.065-1.045-.039-1.564-.163-.28-.068-.585-.141-.956-.197z" fill="#c9333c"/><path d="M582.06 189.586c-4.35-2.11-9.4-2.23-13.84-.31l-61.09 24.31a13.497 13.497 0 0 0-8.16 12.3l-.6 85.79 12.58-6.45.19-76.93a8.318 8.318 0 0 1 5.12-7.65l68.36-28.4c1.08-.45 2.19-.35 3.11.11v-.01l-5.67-2.76z" fill="#051627"/><path d="M587.72 192.346c-.92-.46-2.03-.56-3.11-.11l-68.36 28.4a8.307 8.307 0 0 0-5.12 7.65l-.19 76.93 2.81-1.51 3.34-1.84.49-59.91 64.68-28.3-2.8 39.03c2.11-2.74 4.21-5.76 6.09-8.94l3-33.88 1.22-13.83c.16-1.65-.75-3.03-2.05-3.69z" fill="#35414c"/><path d="M579.47 292.676l2.8-79.03-64.68 28.3-.15 17.99-.27 63.86c7.91-1.85 25.01-5.91 44.52-12.4a139.45 139.45 0 0 0 5.17-4.76c1.22-1.17 6.91-6.55 12.61-13.96z" fill="#668eff"/><path d="M543.41 221.246l16.9-7.41" stroke="#051627" stroke-width="3" stroke-miterlimit="10" stroke-linecap="round"/><path d="M581.5 200.776s3.26-16.13 14.66-17.27c1.3.65 2.12 3.78 2.12 3.78s11.73-11.6 24.92-11.11c4.89 2.77 7.17 13.95 7.17 15.77s1.3 20.06 1.3 20.06l-50.17 12.34v-23.57z" fill="#8fda53"/><path d="M614.9 190.536c-.24-.54-2.57.33-5.29 2.55-2.72 2.21-4.06 3.25-5.98 5.49l-2 2.57-1.35 1.87-.99 1.35-1.07 1.5c-.76 1.03-1.47 2.22-2.14 3.55-1.1 2.31-1.91 4.16-1.45 4.39.63.31 1.9-1.4 2.41-2.62 1.07-2.29 2.05-3.13 3.43-5.38 2.34-3.9 4.57-5.89 5.84-7.04.36-.31.76-.77 1.2-1.28l1.46-1.55c1-.93 1.57-1.17 2.75-2.24 2.38-2.06 3.42-2.67 3.18-3.16z" fill="#66b03f"/><path d="M650.42 210.096a16.622 16.622 0 0 0-13.58-2.69l-64.36 13.46a13.503 13.503 0 0 0-10.15 10.71l-15.32 84.43a439.56 439.56 0 0 0 13.5-4.2l13.39-75.75a8.31 8.31 0 0 1 6.36-6.66l72.22-16.24c1.14-.26 2.22.03 3.04.65v-.01l-5.1-3.7z" fill="#e6e6e8"/><path d="M655.53 213.796a3.73 3.73 0 0 0-3.04-.65l-72.22 16.24a8.31 8.31 0 0 0-6.36 6.66l-13.39 75.75 3.03-1.01 3.61-1.24 10.76-58.93 68.58-16.78-9.46 37.97c2.55-2.34 5.14-4.95 7.54-7.76l12.35-46.28c.42-1.59-.24-3.1-1.4-3.97z" fill="#fff"/><path d="M579.42 250.246l-1.51.37-10.76 58.93c18.66-6.5 38.89-15.16 55.08-26.14 1.4-.96 7.93-5.29 14.81-11.61l9.46-37.97-67.08 16.42z" fill="#c2eaff"/><path d="M606.91 234.656l17.92-4.4" stroke="#e6e6e8" stroke-width="3" stroke-miterlimit="10" stroke-linecap="round"/><path d="M353.59 247.166s-28.82-15.55-35.55-33.36c-4.13-12.16-3.91-22.15-3.91-22.15v-54.3s-1.52-18.9 12.6-28.45 57.77-34.32 57.77-34.32 13.47-9.56 31.71-5.65 30.81 11.92 33.11 13.02-18.77 9.36-18.77 9.36l-68.63 56.03-4.13 31.06-2.18 52.13-2.02 16.63z" fill="#502160"/><path d="M427.18 216.076l-52.32 31.49c-13.3 8.01-30.25-1.57-30.25-17.1v-57.14c0-23.99 12.66-46.2 33.3-58.42l54.48-32.27c11.52-6.82 26.09 1.48 26.09 14.87v63.2a64.63 64.63 0 01-31.3 55.37z" fill="#733c86"/><path d="M426.05 211.416l-51.98 31.28c-10.93 6.58-24.86-1.29-24.86-14.05v-57.08a60.47 60.47 0 0 1 29.66-52.04l53.97-31.96c9.3-5.51 21.05 1.19 21.05 12v62.61c0 20.16-10.57 38.84-27.84 49.24z" fill="#cda5dc"/><path d="M371.4 220.686l34.89-21a57.485 57.485 0 0027.84-49.24v-44.81c0-6.08-2.17-11.4-5.63-15.5l-49.63 29.39a60.493 60.493 0 00-29.66 52.04v51.93c7.04 2.13 14.99 1.52 22.19-2.81z" fill="#f17ba5"/><path d="M389.62 144.236c-5.98 3.45-11.04 11.66-11.51 18.92-.5 7.65 4.28 11.33 10.66 8.24.32-.16.64-.33.96-.51 5.98-3.45 11.04-11.66 11.51-18.92.5-7.65-4.27-11.33-10.66-8.24-.32.16-.64.33-.96.51zm1.34 22.23l-.06.03-3.73 1.8-.05.02c-.46.19-.79-.14-.75-.76l.59-9.03.01-.07c.03-.18.09-.39.2-.57l.59-.99.04-.07c.21-.39.23-.85.04-1.03l-.5-.46-.03-.03a.603.603 0 01-.11-.41l.31-4.67.01-.07c.07-.6.44-1.23.88-1.49.02-.01.04-.02.07-.03l3.74-1.8c.48-.23.84.1.8.74l-.61 9.38-.01.07c-.03.18-.09.39-.2.56l-.6.99-.03.06c-.22.4-.23.85-.04 1.03l.49.47.03.03c.08.09.12.25.1.43l-.28 4.31-.01.07c-.07.59-.45 1.23-.89 1.49zm-1.22 8.98c-.42.24-.85.47-1.28.68-8.58 4.15-14.99-.81-14.32-11.05.63-9.74 7.44-20.77 15.47-25.41.42-.24.85-.47 1.28-.68 8.57-4.15 14.98.81 14.31 11.06-.63 9.74-7.43 20.77-15.46 25.4zm-.15-40.34c-10.08 5.82-18.6 19.65-19.41 31.88-.84 12.87 7.2 19.08 17.96 13.88.54-.26 1.07-.54 1.61-.85 10.08-5.82 18.61-19.65 19.41-31.88.84-12.87-7.2-19.08-17.96-13.88-.54.26-1.08.55-1.61.85z" fill="#fff"/><path d="M550.66 293.076c4.78-19.33 3.66-38.01 3.66-38.01l-53.62 18.03-118.15-9.99-16.04-8.04s.21 17.53 1.79 30.31c5.55 10.01 12.08 19.94 21.84 31.57 10.1 5.89 33.51 19.41 43.49 23.96 22.02-3.81 58.57-10.81 79.61-16.17 1.2-.31 3.85-.9 7.58-1.79 9.76-5.37 26.49-16.34 29.84-29.87z" fill="#502160"/><path d="M375.77 239.556l53.42-32.73c18.29-11.21 41.26-11.42 59.76-.57l56.16 32.97c12.09 7.1 12.33 24.5.43 31.92l-48.43 30.19c-22.16 13.81-50.19 14.04-72.57.59l-48.63-29.24c-12.47-7.49-12.54-25.53-.14-33.13z" fill="#733c86"/><path d="M379.74 241.836l51.93-31.82a53.426 53.426 0 0154.97-.519l54.44 31.959c10.38 6.09 10.58 21.03.37 27.39l-47.22 29.44a64.025 64.025 0 01-66.87.54l-47.49-28.56c-10.71-6.42-10.77-21.9-.13-28.43z" fill="#cda5dc"/><path d="M428.81 267.016s16.94-37.79 68.42-36.92c0 0-34.21 2.6-68.42 36.92z" fill="#733c86"/><path d="M428.79 266.996c.21.19 1.36-.72 3.28-2.37l8.02-6.72c6.78-5.35 10.36-7.44 16.48-11.28l2.12-1.32a525.755 525.755 0 0 0 4.8-2.73c1.76-.95 3.23-1.64 5.09-2.57 1.16-.62 2.45-1.13 3.79-1.67l4.22-1.68c3.01-.97 6.19-2.22 9.73-3.2 1.52-.45 2.94-.95 4.26-1.27l3.5-.85c1.98-.51 3.19-.91 3.15-1.18-.05-.35-1.42-.33-3.2-.14a47.72 47.72 0 0 0-2.85.41l-1.43.27c-.46.11-.89.25-1.3.37-1.54.48-2.9.87-4.16 1.22l-1.84.49-1.75.57c-2.32.77-4.75 1.4-7.84 2.84-10.64 4.75-17.11 8.65-21 10.84-1.05.65-2.35 1.54-3.76 2.54-1.42 1-2.89 2.2-4.41 3.3-2.79 2.17-4.14 2.95-7.24 5.7-6.06 5.52-8.03 8.1-7.66 8.43z" fill="#502160"/><path d="M470.24 196.326s10.59-.6 9.61 12.76-9.27 28.81-13.45 30.94c0 0 9.77-4.48 14.46-5.92 0-.01 20.33-37.87-10.62-37.78z" fill="#eb7100"/><path d="M448.29 250.676s-15.03-5.02-.86-32.51c14.17-27.5 33.76-22.69 38.51-14.25 0 0-9.99-20.24-30.85-7.6-20.86 12.65-30.25 51.93-12.03 58.17l5.23-3.81z" fill="#ffd480"/><path d="M480 181l-14.48 15.696 5.98-9.196 8.5-6.5zm-34.36.546l15.48 15.15-2.12-11.4-13.36-3.75z" fill="#c2eaff"/><path d="M455.42 185.947c-.33 0 5.7 10.75 5.7 10.75h4.4L472 187l-16.58-1.053z" fill="#c3fcff"/><path d="M462.83 181.546c7.693 0 13.93-3.792 13.93-8.47s-6.237-8.47-13.93-8.47-13.93 3.793-13.93 8.47 6.237 8.47 13.93 8.47z" fill="#f1faff"/><path d="M450.28 169.396l-4.64 3.68v8.47l4.64-4.79v-7.36z" fill="#c2eaff"/><path d="M450.28 176.756l-4.64 4.79 10.59 6.2.72-6.99-6.67-4z" fill="#c3fcff"/><path d="M456.95 180.757l-.72 6.99H472l-.95-7.83-14.1.84z" fill="#c2eaff"/><path d="M471.05 179.916L472 188l8.01-7.104-4.65-4.14-4.31 3.16z" fill="#c3fcff"/><path d="M476.22 170.746l-.86 6.01 4.65 4.14v-7.17l-3.79-2.98z" fill="#c2eaff"/></g><defs><clipPath id="A"><path fill="#fff" d="M0 0h1040v400H0z"/></clipPath></defs></svg>